<?xml version="1.0" standalone="no"?>
<!DOCTYPE svg PUBLIC "-//W3C//DTD SVG 20010904//EN"
 "http://www.w3.org/TR/2001/REC-SVG-20010904/DTD/svg10.dtd">
<svg version="1.0" xmlns="http://www.w3.org/2000/svg"
 width="60" height="60" viewBox="0 0 443.000000 411.000000"
 preserveAspectRatio="xMidYMid meet">

<g transform="translate(0.000000,411.000000) scale(0.100000,-0.100000)"
fill="red" stroke="none">
<path d="M1005 4079 c-373 -54 -706 -300 -871 -644 -78 -162 -105 -275 -111
-461 -6 -172 5 -274 46 -437 75 -293 214 -574 455 -912 l88 -125 514 0 514 0
40 -36 c39 -35 39 -35 44 -12 3 13 46 334 96 713 50 380 93 700 95 712 7 30
44 63 71 63 13 0 34 -10 48 -22 26 -23 26 -24 108 -808 45 -432 84 -788 88
-792 3 -5 23 24 44 64 48 87 68 108 104 108 15 -1 78 -23 141 -49 l115 -48
134 231 c74 127 141 237 150 244 9 6 28 12 43 12 52 0 66 -24 109 -200 23 -91
44 -168 48 -172 4 -4 170 -5 368 -1 l360 6 85 113 c376 506 552 1032 484 1451
-129 793 -989 1221 -1695 842 -154 -83 -309 -224 -409 -373 -44 -64 -56 -76
-79 -76 -25 0 -37 13 -92 98 -180 275 -480 466 -804 511 -89 13 -244 12 -331
0z"/>
<path d="M1911 1722 c-35 -262 -67 -485 -72 -494 -12 -22 -41 -38 -70 -38 -14
0 -53 31 -108 85 l-87 85 -417 0 c-229 0 -417 -3 -417 -8 0 -16 206 -240 399
-432 234 -234 393 -379 736 -671 296 -252 292 -249 313 -242 38 14 706 559
952 777 144 128 511 492 549 544 l22 32 -345 0 -345 0 -18 24 c-10 13 -30 69
-43 125 -13 56 -27 98 -31 94 -4 -5 -53 -87 -109 -183 -56 -96 -107 -178 -113
-182 -26 -17 -77 -6 -182 38 -101 43 -110 45 -122 28 -7 -9 -47 -78 -89 -153
-42 -75 -84 -142 -92 -148 -23 -19 -66 -16 -92 5 -22 18 -26 46 -84 599 -34
320 -63 584 -66 587 -3 3 -34 -210 -69 -472z"/>
</g>
</svg>
