<?xml version="1.0" encoding="utf-8"?>
<!-- Svg Vector Icons : http://www.onlinewebfonts.com/icon -->
<!DOCTYPE svg PUBLIC "-//W3C//DTD SVG 1.1//EN" "http://www.w3.org/Graphics/SVG/1.1/DTD/svg11.dtd">
<svg version="1.1" xmlns="http://www.w3.org/2000/svg" fill="#00A2E8" width="50" height="50" xmlns:xlink="http://www.w3.org/1999/xlink" viewBox="0 0 1000 1000" enable-background="new 0 0 1000 1000" xml:space="preserve">
<metadata> Svg Vector Icons : http://www.onlinewebfonts.com/icon </metadata>
<g><path d="M486.8,379.7c0-3.3-2.5-6-5.5-6H373.7c-3,0-5.5,2.6-5.5,6v14.7c0,3.3,2.5,6,5.5,6h107.6c3,0,5.5-2.6,5.5-6l0,0V379.7z"/><path d="M486.8,607.2c0-3.3-2.5-6-5.5-6H373.7c-3,0-5.5,2.6-5.5,6v14.7c0,3.3,2.5,6,5.5,6h107.6c3,0,5.5-2.6,5.5-6l0,0V607.2z"/><path d="M486.8,721c0-3.3-2.5-6-5.5-6H373.7c-3,0-5.5,2.6-5.5,6v14.7c0,3.3,2.5,6,5.5,6h107.6c3,0,5.5-2.6,5.5-6l0,0V721z"/><path d="M486.8,493.4c0-3.3-2.5-6-5.5-6H373.7c-3,0-5.5,2.6-5.5,6v14.7c0,3.3,2.5,6,5.5,6h107.6c3,0,5.5-2.6,5.5-6l0,0V493.4z"/><path d="M486.8,265.9c0-3.3-2.5-6-5.5-6H373.7c-3,0-5.5,2.6-5.5,6v14.7c0,3.3,2.5,6,5.5,6h107.6c3,0,5.5-2.6,5.5-6l0,0V265.9z"/><path d="M500,10C229.4,10,10,229.4,10,500c0,270.6,219.4,490,490,490s490-219.4,490-490C990,229.4,770.6,10,500,10z M552,843.2c0,13.3-10,24.3-22.1,24.3H366.1c-12.2,0-22.1-11-22.1-24.3V156.8c0-13.3,10-24.3,22.1-24.3H530c12.2,0,22.1,11,22.1,24.3v319.4l-22.4,12.3c-11.5,6.4-11.5,16.5,0,22.8l22.3,12.3V843.2z M656,541.9c0,12.4-9.3,17.6-20.8,11.3l-74.6-41.1c-11.5-6.4-11.5-16.5,0-22.8l74.6-41.1c11.5-6.1,21-1,20.8,11.7V541.9z"/></g>
</svg>