<?xml version="1.0" standalone="no"?>
<!DOCTYPE svg PUBLIC "-//W3C//DTD SVG 20010904//EN"
 "http://www.w3.org/TR/2001/REC-SVG-20010904/DTD/svg10.dtd">
<svg version="1.0" xmlns="http://www.w3.org/2000/svg"
 width="60" height="60" viewBox="0 0 512.000000 512.000000"
 preserveAspectRatio="xMidYMid meet">

<g transform="translate(0.000000,512.000000) scale(0.100000,-0.100000)"
fill="grey" stroke="none">
<path d="M1993 5060 c-45 -11 -81 -36 -103 -73 -20 -31 -20 -65 -20 -1764 l0
-1733 -302 0 c-190 0 -318 -4 -343 -11 -52 -15 -111 -74 -120 -122 -15 -78 19
-153 84 -187 38 -19 58 -20 361 -20 l320 0 -2 -377 -3 -378 -487 -5 c-474 -5
-487 -6 -515 -26 -98 -73 -99 -205 -2 -276 14 -11 43 -23 65 -28 52 -12 3216
-12 3268 0 149 34 186 213 63 304 -28 20 -41 21 -515 26 l-487 5 -3 378 -2
377 320 0 c303 0 323 1 361 20 65 34 99 109 84 187 -9 48 -68 107 -120 122
-25 7 -153 11 -342 11 l-303 0 0 1734 0 1733 -23 33 c-12 19 -38 43 -57 54
-34 20 -50 21 -590 23 -305 1 -570 -2 -587 -7z"/>
<path d="M837 4154 c-238 -57 -422 -264 -452 -508 l-7 -56 -123 0 c-148 0
-194 -18 -232 -90 l-23 -43 0 -702 0 -702 23 -44 c15 -27 38 -52 63 -66 39
-22 43 -23 460 -23 420 0 421 0 464 23 30 16 51 37 67 67 l23 43 0 691 c0 423
-4 705 -10 726 -11 41 -61 94 -103 109 -16 6 -82 11 -148 11 -92 0 -119 3
-119 13 0 36 36 111 70 146 75 77 67 76 423 79 l317 3 0 170 0 169 -317 -1
c-236 0 -333 -4 -376 -15z"/>
<path d="M3590 4001 l0 -170 318 -3 c355 -3 347 -2 422 -79 34 -35 70 -110 70
-146 0 -10 -27 -13 -120 -13 -79 0 -132 -5 -153 -14 -49 -20 -95 -78 -102
-128 -3 -24 -5 -352 -3 -729 l3 -685 25 -37 c14 -21 43 -46 66 -57 38 -19 61
-20 460 -20 415 0 419 1 458 23 25 14 48 39 63 66 l23 44 0 702 0 702 -23 43
c-38 72 -84 90 -232 90 l-123 0 -7 56 c-28 225 -185 417 -405 496 -62 22 -79
23 -402 26 l-338 3 0 -170z"/>
</g>
</svg>
