<?xml version="1.0" standalone="no"?>
<!DOCTYPE svg PUBLIC "-//W3C//DTD SVG 20010904//EN"
 "http://www.w3.org/TR/2001/REC-SVG-20010904/DTD/svg10.dtd">
<svg version="1.0" xmlns="http://www.w3.org/2000/svg"
 width="80" height="80" viewBox="0 0 512.000000 512.000000"
 preserveAspectRatio="xMidYMid meet">

<g transform="translate(0.000000,512.000000) scale(0.100000,-0.100000)"
fill="green" stroke="none">
<path d="M2951 4546 c-100 -36 -159 -133 -170 -279 l-6 -92 -129 -27 c-71 -16
-131 -27 -133 -24 -8 7 48 140 83 198 20 33 58 81 85 108 27 27 49 51 49 53 0
7 -79 57 -89 57 -20 0 -117 -100 -148 -151 -103 -173 -151 -511 -124 -869 7
-85 15 -166 18 -179 l6 -25 -34 22 c-367 242 -809 183 -1158 -152 -145 -140
-249 -299 -307 -469 -17 -50 -20 -69 -11 -72 7 -3 55 -14 107 -25 52 -11 104
-22 116 -25 17 -4 23 2 34 38 25 86 98 207 179 299 58 65 192 164 276 204 148
71 342 95 466 58 l54 -16 -100 -33 c-55 -17 -125 -44 -155 -59 -193 -98 -340
-268 -411 -473 -32 -94 -40 -87 139 -111 682 -92 1218 -82 1917 34 209 35 579
110 602 123 8 4 6 20 -8 60 -60 172 -318 477 -512 605 -96 64 -205 113 -312
142 -107 28 -322 26 -435 -4 -103 -28 -211 -72 -275 -113 -26 -16 -49 -29 -50
-27 -2 2 -11 53 -20 113 -23 148 -31 418 -15 528 l12 87 37 9 c331 87 444 104
686 105 230 1 280 -7 400 -64 62 -30 149 -89 142 -97 -3 -2 -26 5 -53 15 -64
26 -243 69 -319 77 -68 8 -69 17 11 -76 22 -26 53 -71 69 -100 l29 -54 -75 66
c-152 135 -175 149 -232 148 -29 -1 -65 -4 -80 -8 l-28 -6 44 -57 c43 -56 78
-125 93 -183 6 -26 0 -21 -45 33 -70 84 -158 170 -191 187 -23 12 -41 12 -120
0 -51 -8 -96 -18 -100 -22 -16 -18 -30 -80 -30 -134 0 -127 80 -246 191 -285
92 -32 209 -25 348 21 129 44 328 141 476 234 152 95 140 81 120 140 -39 118
-187 290 -334 391 -85 57 -251 134 -332 154 -76 19 -199 20 -248 2z"/>
<path d="M710 2560 c0 -12 18 -163 41 -338 22 -174 43 -341 46 -369 3 -29 11
-57 17 -62 15 -12 491 -134 648 -166 400 -82 1012 -107 1493 -60 337 32 780
110 1075 188 l125 33 48 392 c27 217 47 395 45 397 -2 3 -81 -13 -174 -35
-352 -81 -773 -151 -1134 -187 -240 -24 -709 -23 -950 1 -349 34 -784 109
-1118 191 -79 19 -147 35 -153 35 -5 0 -9 -9 -9 -20z m273 -171 l97 -21 0
-199 0 -199 60 0 60 0 0 185 c0 210 -9 193 95 172 l60 -13 3 -132 3 -132 59 0
60 0 0 120 c0 108 2 120 18 119 9 0 53 -6 97 -12 l80 -12 3 -208 2 -207 60 0
60 0 0 201 0 201 23 -5 c12 -3 57 -9 100 -12 l77 -7 0 -129 0 -129 60 0 60 0
0 126 0 127 38 -7 c20 -3 56 -6 80 -6 l42 0 0 -220 0 -220 60 0 60 0 0 220 0
220 100 0 100 0 0 -140 0 -140 60 0 60 0 0 139 0 140 53 5 c28 3 82 8 120 11
l67 6 0 -211 0 -210 60 0 60 0 0 215 c0 118 1 215 3 215 1 0 52 7 112 15 61 8
113 15 118 15 4 0 7 -67 7 -150 l0 -150 60 0 60 0 0 160 0 159 33 5 c120 20
165 28 185 33 l22 5 0 -201 0 -201 60 0 60 0 2 212 3 211 148 32 147 31 0 -23
c0 -27 -59 -505 -63 -508 -7 -7 -324 -78 -460 -104 -172 -33 -442 -73 -637
-93 -82 -9 -266 -13 -535 -13 -443 1 -579 10 -853 61 -143 26 -611 141 -625
154 -4 4 -21 108 -37 231 -16 123 -32 241 -35 262 -5 33 -3 38 12 33 10 -2 62
-14 116 -27z"/>
<path d="M4965 1749 c-87 -10 -356 -27 -537 -35 -150 -6 -157 -8 -160 -28 -3
-18 -11 -21 -58 -24 l-55 -3 -62 -132 c-38 -80 -64 -152 -68 -183 l-6 -51 38
-6 c82 -14 77 -21 97 121 10 70 20 139 23 155 l6 27 122 0 122 0 -23 -152
c-13 -84 -26 -172 -30 -195 l-6 -42 48 -6 c27 -4 54 -8 59 -8 6 -1 23 89 40
203 l31 205 153 8 c84 5 154 7 156 5 4 -3 -135 -500 -141 -507 -12 -13 -312
-32 -592 -38 l-323 -6 -44 -56 c-38 -48 -42 -57 -28 -65 40 -22 864 11 1046
42 l42 7 107 380 c59 209 106 382 105 385 -1 3 -29 2 -62 -1z"/>
<path d="M3860 1614 c-417 -96 -869 -151 -1325 -161 -553 -11 -960 31 -1414
147 -85 22 -156 39 -157 37 -5 -4 165 -281 246 -402 213 -318 344 -456 511
-540 177 -89 391 -95 595 -16 l74 29 12 -39 c11 -40 23 -49 31 -26 3 8 10 7
26 -7 20 -19 22 -19 61 -1 39 17 41 17 60 0 20 -18 20 -17 20 20 0 32 3 36 18
29 107 -47 159 -58 272 -58 103 0 125 4 209 32 270 93 494 298 760 697 99 148
181 279 181 288 0 11 -25 7 -180 -29z"/>
<path d="M695 1590 c-82 -10 -251 -26 -374 -36 -145 -12 -225 -23 -228 -30 -4
-12 82 -222 226 -549 l70 -160 208 3 c263 4 494 18 648 38 167 23 162 19 104
82 l-49 53 -72 -10 c-128 -19 -327 -31 -546 -33 l-214 -3 -104 239 c-58 131
-103 241 -100 243 3 3 56 6 117 7 l113 1 52 -178 c29 -98 54 -181 56 -183 7
-6 108 26 108 34 0 4 -22 83 -49 175 -33 114 -45 169 -38 172 7 2 44 6 83 10
l70 6 34 -121 c23 -80 39 -120 49 -120 12 0 91 20 99 26 2 1 -11 48 -28 104
-16 56 -30 109 -30 116 0 9 11 14 30 14 l29 0 -36 60 c-27 45 -41 60 -57 59
-11 -1 -88 -10 -171 -19z"/>
</g>
</svg>
